<svg xmlns="http://www.w3.org/2000/svg" width="21" height="18" viewBox="0 0 21 18">
  <g id="button-busca" transform="translate(-530 128)">
    <path id="Rectangle_20" data-name="Rectangle 20" d="M0,0H19a2,2,0,0,1,2,2V16a2,2,0,0,1-2,2H0a0,0,0,0,1,0,0V0A0,0,0,0,1,0,0Z" transform="translate(530 -128)" fill="#00cad8"/>
    <path id="search-light" d="M12.442,11.584,9.085,8.092a4.748,4.748,0,1,0-.334.3l3.365,3.5a.226.226,0,1,0,.326-.313ZM5.727,9.037A4.292,4.292,0,1,1,10.02,4.744,4.3,4.3,0,0,1,5.727,9.037Z" transform="translate(534.017 -125)" fill="#fff"/>
  </g>
</svg>
