<svg xmlns="http://www.w3.org/2000/svg" xmlns:xlink="http://www.w3.org/1999/xlink" width="26" height="26" viewBox="0 0 26 26">
  <defs>
    <clipPath id="clip-path">
      <circle id="Ellipse_2" data-name="Ellipse 2" cx="13" cy="13" r="13" transform="translate(370 -132)" fill="#00c9d7"/>
    </clipPath>
  </defs>
  <g id="linkedin" transform="translate(-370 132)">
    <g id="Mask_Group_2" data-name="Mask Group 2" clip-path="url(#clip-path)">
      <g id="linkedin-2" data-name="linkedin" transform="translate(370 -132)">
        <rect id="Rectangle_22" data-name="Rectangle 22" width="26" height="26" rx="3.9" fill="#00c9d7"/>
        <circle id="Ellipse_6" data-name="Ellipse 6" cx="1.879" cy="1.879" r="1.879" transform="translate(5.332 4.129)" fill="#fff"/>
        <path id="Path_2" data-name="Path 2" d="M12.391,9.852V19.906M7.211,9.852V19.906" transform="translate(0 -1)" fill="#fff" stroke="#fff" stroke-width="3.352"/>
        <path id="Path_3" data-name="Path 3" d="M14.016,14.32a1.9,1.9,0,0,1,1.828-2.031c1.219,0,1.676.914,1.676,2.285v5.332h3.352V14.168c0-3.1-1.625-4.52-3.859-4.52a3.332,3.332,0,0,0-3,1.625" transform="translate(0 -1)" fill="#fff"/>
      </g>
    </g>
  </g>
</svg>
