<svg xmlns="http://www.w3.org/2000/svg" width="26" height="26" viewBox="0 0 26 26">
  <g id="twitter" transform="translate(-436 132)">
    <circle id="Ellipse_4" data-name="Ellipse 4" cx="13" cy="13" r="13" transform="translate(436 -132)" fill="#00c9d7"/>
    <g id="twtt" transform="translate(443.686 -164.76)">
      <g id="Group_1" data-name="Group 1" transform="translate(-0.997 40.017)">
        <path id="Path_4" data-name="Path 4" d="M13.907,43.362q-.106.031-.212.058c-.432.109-.471-.035-.159-.352a2.88,2.88,0,0,0,.371-.464c.241-.375.032-.538-.378-.363q-.219.094-.445.169a1.862,1.862,0,0,1-1.4-.311,3.092,3.092,0,0,0-3.785.444,2.951,2.951,0,0,0-.9,2.166,3.233,3.233,0,0,0,.02.353c.021.194-.305.335-.746.272a8.473,8.473,0,0,1-2.719-.867,8.718,8.718,0,0,1-2.255-1.659c-.311-.318-.733-.291-.849.139a3.068,3.068,0,0,0-.1.8,2.982,2.982,0,0,0,.37,1.46,3.134,3.134,0,0,0,.431.606c.277.3.235.481-.151.373a4.973,4.973,0,0,1-.668-.258v.019a2.958,2.958,0,0,0,.7,1.948,3.047,3.047,0,0,0,1,.8c.4.2.585.308.362.337a3.165,3.165,0,0,1-.406.026q-.138,0-.29-.013c-.16-.014-.188.319.054.693a3.065,3.065,0,0,0,.739.784,3,3,0,0,0,.986.5c.428.122.514.344.132.573a5.982,5.982,0,0,1-3.137.851q-.194,0-.37-.009c-.2-.01-.067.17.327.377a8.5,8.5,0,0,0,4,.968,8.951,8.951,0,0,0,3.061-.516A7.786,7.786,0,0,0,9.936,51.88a9.26,9.26,0,0,0,1.749-2,8.9,8.9,0,0,0,1.095-2.355,8.7,8.7,0,0,0,.36-2.46c0-.074,0-.14,0-.2,0-.11.289-.408.613-.712q.22-.206.42-.433C14.465,43.391,14.335,43.237,13.907,43.362Z" transform="translate(-0.003 -41.648)" fill="#fff"/>
      </g>
    </g>
  </g>
</svg>
