<svg xmlns="http://www.w3.org/2000/svg" xmlns:xlink="http://www.w3.org/1999/xlink" width="65.143" height="64.895" viewBox="0 0 65.143 64.895">
  <defs>
    <filter id="Path_9" x="0" y="0" width="65.143" height="64.895" filterUnits="userSpaceOnUse">
      <feOffset dy="3" input="SourceAlpha"/>
      <feGaussianBlur stdDeviation="5" result="blur"/>
      <feFlood flood-opacity="0.859"/>
      <feComposite operator="in" in2="blur"/>
      <feComposite in="SourceGraphic"/>
    </filter>
  </defs>
  <g id="wpp" transform="translate(-91.981 -85.915)">
    <g transform="matrix(1, 0, 0, 1, 91.98, 85.91)" filter="url(#Path_9)">
      <path id="Path_9-2" data-name="Path 9" d="M39.534,28.965,52.39,27.49c6.892,0,14.34,4.7,14.34,11.553l-1.3,12.493c-1.229,2.3-3.784,4.226-4.387,6.19-.024.082-4.2,2.587-4.285,2.7-2.232,3.242-2.972,1.475-7.252,1.475L35.743,60.02c-6.892,0-3.132-.932-3.132-7.784V39.617C39.369,34.209,32.642,28.965,39.534,28.965Z" transform="translate(-16.59 -15.49)" fill="#00c9d7"/>
    </g>
    <path id="Path_7" data-name="Path 7" d="M199.3,191.5c-.372-.248-.744-.372-1.117.124l-1.489,1.985a.924.924,0,0,1-1.117.124,14.411,14.411,0,0,1-6.7-5.832.938.938,0,0,1,.372-.993l1.117-1.737c.248-.248.124-.5,0-.744l-1.489-3.6c-.372-.993-.744-.869-1.117-.869h-.993a1.885,1.885,0,0,0-1.241.62c-2.73,2.73-1.613,6.576.372,9.058a19.012,19.012,0,0,0,8.189,7.321c3.971,1.737,4.839,1.489,5.956,1.241a4.743,4.743,0,0,0,3.35-2.357c.124-.372.744-1.985.248-2.233" transform="translate(-69.115 -74.418)" fill="#fff"/>
    <path id="Path_8" data-name="Path 8" d="M124.729,130.859a16.958,16.958,0,0,1-8.934-2.73l-6.08,1.613,1.489-5.956a17.741,17.741,0,0,1-2.482-8.686A16.443,16.443,0,0,1,125.1,98.722a15.518,15.518,0,0,1,15.634,15.758,16.368,16.368,0,0,1-16.006,16.378M105,134.457l10.3-2.854a19.6,19.6,0,0,0,28.538-17.371A19.065,19.065,0,0,0,124.729,95a19.6,19.6,0,0,0-17,29.283" fill="#fff"/>
  </g>
</svg>
